<svg xmlns="http://www.w3.org/2000/svg" viewBox="0 0 64 64">
  <rect width="64" height="64" rx="18" fill="#FCFCFD" />
  <g
    transform="translate(6.4 6.4) scale(0.8)"
    fill="none"
    stroke="#111828"
    stroke-linecap="round"
    stroke-linejoin="round"
    stroke-width="4"
  >
    <path d="M32 14a8 8 0 1 0-16 .334A10.667 10.667 0 0 0 9.264 29.72a10.667 10.667 0 0 0 1.483 17.568A10.667 10.667 0 1 0 32 48Z" />
    <path d="M24 35.333A12 12 0 0 0 32 24.667" />
    <path d="M16.008 14.333A8 8 0 0 0 17.069 18" />
    <path d="M9.272 29.056a10.667 10.667 0 0 1 1.56-1.056" />
    <path d="M16 48a10.667 10.667 0 0 1-5.245-1.376" />
    <path d="M32 35h10.667" />
    <path d="M32 48h16a5.333 5.333 0 0 1 5.333 5.333V56" />
    <path d="M32 21.333h21.333" />
    <path d="M42.667 21.333v-8a5.333 5.333 0 0 1 5.333-5.333" />
    <circle cx="42.667" cy="35" r="1.333" fill="#111828" stroke="none" />
    <circle cx="48" cy="8" r="1.333" fill="#111828" stroke="none" />
    <circle cx="53.333" cy="56" r="1.333" fill="#111828" stroke="none" />
    <circle cx="53.333" cy="21.333" r="1.333" fill="#111828" stroke="none" />
  </g>
</svg>
